# xmcd CD database file
#
# Track frame offsets:
#	150
#	25693
#	51285
#
# Disc length: 854 seconds
#
# Revision: 0
# Processed by: cddbd v1.5.1PL0 Copyright (c) Steve Scherf et al.
# Submitted via: CDex 1.51
#
DISCID=1c035403
DTITLE=白鳥英美子 - 星界の戦記?エンディングテーマ「手のひらの夢」
DYEAR=2005
DGENRE=Vocal
TTITLE0=手のひらの夢
TTITLE1=手のひらの夢 (OffVocal)
TTITLE2=メインテーマ
EXTD=YEAR: 2005
EXTT0=
EXTT1=
EXTT2=
PLAYORDER=
